<mxfile host="app.diagrams.net" modified="2023-09-01T17:56:42.137Z" agent="Mozilla/5.0 (Windows NT 10.0; Win64; x64) AppleWebKit/537.36 (KHTML, like Gecko) Chrome/116.0.0.0 Safari/537.36 Edg/116.0.1938.62" version="21.7.1" etag="rq5VmOuS3l7rYkpEaXXB" type="github">
  <diagram name="Page-1" id="IYGnorUM0-hyLib1PSYO">
    <mxGraphModel>
      <root>
        <mxCell id="0" />
        <mxCell id="1" parent="0" />
      </root>
    </mxGraphModel>
  </diagram>
</mxfile>
